<?xml version="1.0" encoding="utf-8"?>
<!-- Generator: Adobe Illustrator 25.2.0, SVG Export Plug-In . SVG Version: 6.00 Build 0)  -->
<svg version="1.1" id="Ebene_1" xmlns="http://www.w3.org/2000/svg" xmlns:xlink="http://www.w3.org/1999/xlink" x="0px" y="0px"
	 viewBox="0 0 127 86" style="enable-background:new 0 0 127 86;" xml:space="preserve">
<style type="text/css">
	.st0{display:none;}
	.st1{display:inline;}
	.st2{fill:#F0140A;}
	.st3{display:inline;fill:#F0140A;}
</style>
<g>
	<g>
		<path class="st2" d="M59.3,42c4.4-2.2,8.1-3.9,12.5-5c2.6-0.7,5.4-1.1,8.3-1.1c4.7,0,10.6,1,15,2.5c0.1-3.5-12-7.4-21-7
			c-7.4,0.3-9.8,1.2-18.4,4.8c-8.8,3.7-17.6,9.4-27.9,9.5c-4.5,0.1-8.1-0.3-13.5-1.8c-0.5,3.3,9.8,6.4,19.1,6.3
			C44,50,54.8,44.2,59.3,42z"/>
		<path class="st2" d="M65,25.9c4.2-0.2,8.9,0.4,14.3,1.9c0.3-0.9-0.2-2-2.7-2.7c-0.7-0.2-1.2-0.5-1.4-1c-1.5-3.9-6.2-5-11.6-5
			c-2.8,0-5.6,0.3-8.3,1c-2.8,0.6-4.8-0.6-5.8-1.2c-2-1.1-4.9-1.9-8-1.2c-0.8,0.2-1,1-0.2,1.4c2,1.1,3.7,4.7-0.8,7.2
			c0,0-9.4,5.2-18.5,7.8c-3.8,1.1-6.7,1.4-9.3,1.4c-4.5,0.1-7.2-0.3-12.6-1.8c-0.5,3.3,9.8,6.4,19.1,6.3c10.6-0.1,18.7-5.1,25.9-8.2
			S57.7,26.3,65,25.9z"/>
	</g>
	<polygon class="st2" points="61.9,68.3 66.2,68.3 66.2,61.1 78.5,61.1 78.5,57.3 66.2,57.3 66.2,52.6 79.3,52.6 79.3,48.7 
		61.9,48.7 	"/>
	<path class="st2" d="M92.2,57.3h-3.2v-4.7h7.4c2.3,0,3.4,1,3.4,2.6c0,1.6-0.7,2.5-0.7,2.5c2.5,0.1,4.6-1.4,4.6-4.4
		c0-3-2.6-4.6-6.3-4.6H84.7l0,19.5h4.4v-7.2h2.7c3.3,0,4.6,0.9,5.9,3.4l1.9,3.8h5.2l-3.5-6C99.6,59.5,97.5,57.3,92.2,57.3z"/>
	<path class="st2" d="M119.1,56.9c-5.8-0.5-6.6-1.2-6.6-2.3c0-1.5,1.7-2.2,5-2.2c5.1,0,8,1.6,8,1.6v-4.2c0,0-2.9-1.3-7.9-1.3
		c-6.3,0-9.5,2.1-9.5,6.2c0,4.4,3.2,5.5,8.8,5.8c4.5,0.3,5.4,0.6,5.4,1.9c0,1.5-1.9,2.3-5.9,2.3c-4.7,0-8.1-1.7-8.1-1.7v4.3
		c0,0,2.5,1.3,8.9,1.3c7,0,9.4-3.2,9.4-6.2C126.7,59.1,124.8,57.4,119.1,56.9z"/>
</g>
</svg>
